# xmcd
#
# Track frame offsets: 
#        196
#        25420
#        49750
#        61974
#        79759
#        92289
#        108224
#        116645
#        145725
#        170605
#        184222
#        204690
#        225018
#
# Disc length: 3344 seconds
#
# Revision: 0
# Processed by: cddbd v1.5.2PL0 Copyright (c) Steve Scherf et al.
# Submitted via: ExactAudioCopy v0.95b4
#
DISCID=a20d0e0d
DTITLE=Mudcat - Worldwide Mud
DYEAR=1996
DGENRE=Blues
TTITLE0=Rattlesnake
TTITLE1=Sangria Wine
TTITLE2=Blue Style
TTITLE3=Savannah Strut
TTITLE4=Free Music
TTITLE5=Midnite Friend
TTITLE6=Fowl Play
TTITLE7=Prisoner Blues
TTITLE8=Don't Let A Dime Go Buy
TTITLE9=Rum Tum
TTITLE10=Fringes
TTITLE11=Man and Death
TTITLE12=Time Is Winding Up
EXTD=
EXTT0=
EXTT1=
EXTT2=
EXTT3=
EXTT4=
EXTT5=
EXTT6=
EXTT7=
EXTT8=
EXTT9=
EXTT10=
EXTT11=
EXTT12=
PLAYORDER=
